<svg xmlns="http://www.w3.org/2000/svg" xmlns:xlink="http://www.w3.org/1999/xlink" width="500" zoomAndPan="magnify" viewBox="0 0 375 374.999991" height="500" preserveAspectRatio="xMidYMid meet" version="1.0"><defs><clipPath id="0347692cbb"><path d="M 37.5 37.5 L 337.5 37.5 L 337.5 337.5 L 37.5 337.5 Z M 37.5 37.5 " clip-rule="nonzero"/></clipPath></defs><g clip-path="url(#0347692cbb)"><path fill="#ffda00" d="M 187.5 37.5 C 104.65625 37.5 37.5 104.65625 37.5 187.5 C 37.5 270.34375 104.65625 337.5 187.5 337.5 C 270.34375 337.5 337.5 270.34375 337.5 187.5 C 337.5 104.65625 270.34375 37.5 187.5 37.5 Z M 247.5 202.5 L 163.710938 202.5 L 187.5 226.289062 C 193.351562 232.140625 193.351562 241.648438 187.5 247.5 C 181.648438 253.351562 172.140625 253.351562 166.289062 247.5 L 116.894531 198.105469 C 111.03125 192.238281 111.03125 182.746094 116.894531 176.894531 L 166.289062 127.5 C 172.140625 121.648438 181.648438 121.648438 187.5 127.5 C 193.351562 133.351562 193.351562 142.859375 187.5 148.710938 L 163.710938 172.5 L 247.5 172.5 C 255.78125 172.5 262.5 179.21875 262.5 187.5 C 262.5 195.78125 255.78125 202.5 247.5 202.5 Z M 247.5 202.5 " fill-opacity="1" fill-rule="nonzero"/></g></svg>