<svg xmlns="http://www.w3.org/2000/svg" xmlns:xlink="http://www.w3.org/1999/xlink" width="500" zoomAndPan="magnify" viewBox="0 0 375 374.999991" height="500" preserveAspectRatio="xMidYMid meet" version="1.0"><defs><g/><clipPath id="377f86e9c5"><path d="M 38 46 L 336 46 L 336 331.6875 L 38 331.6875 Z M 38 46 " clip-rule="nonzero"/></clipPath></defs><g clip-path="url(#377f86e9c5)"><path fill="#000000" d="M 324.089844 195.378906 C 320.851562 187.597656 317.808594 180.238281 316.355469 172.347656 C 316.085938 170.875 315.855469 169.335938 315.613281 167.777344 C 314.402344 159.847656 313.039062 150.84375 305.921875 145.683594 C 298.960938 140.632812 289.757812 141.949219 283.453125 144.871094 C 278.445312 147.175781 274.21875 150.5625 270.109375 153.855469 C 268.882812 154.851562 267.644531 155.859375 266.359375 156.820312 C 251.371094 168.273438 232.554688 175.183594 213.644531 176.394531 C 221.84375 169.617188 228.320312 160.363281 232.273438 149.5 C 236.75 137.214844 238.007812 122.835938 235.863281 107.925781 C 234.023438 95.195312 230.023438 84.71875 223.949219 76.769531 C 218.011719 69.007812 209.359375 62.539062 197.449219 57.039062 C 173.59375 45.964844 148.453125 43.640625 126.621094 50.464844 C 101.976562 58.210938 82.996094 78.089844 78.179688 101.207031 C 75.964844 103.40625 71.964844 103.425781 68.832031 102.660156 C 67.042969 102.234375 65.273438 101.574219 63.398438 100.886719 C 60.882812 99.976562 58.3125 99.039062 55.515625 98.546875 C 50.429688 97.644531 43.332031 98.671875 40.035156 104.394531 C 37.667969 108.507812 38.023438 113.707031 41.070312 119.894531 C 46.503906 130.832031 55.75 139.691406 66.847656 144.746094 C 64.828125 147.109375 62.933594 149.78125 61.820312 152.976562 C 59.886719 158.648438 61.414062 164.777344 65.523438 167.886719 C 68.316406 169.976562 71.644531 170.421875 74.816406 170.59375 C 76.285156 170.683594 77.773438 170.722656 79.246094 170.722656 C 82.871094 170.722656 86.515625 170.46875 90.09375 169.957031 C 91.902344 172.492188 94.058594 175.3125 96.890625 177.507812 C 98.222656 178.554688 99.78125 179.28125 101.320312 179.871094 C 94.945312 182.601562 88.410156 185.542969 82.339844 189.988281 C 74.671875 195.574219 68.171875 202.3125 62.972656 210.007812 C 52.414062 225.75 47.589844 245.609375 49.78125 264.449219 C 51.726562 281.167969 58.902344 295.867188 69.960938 305.867188 C 82.800781 317.496094 100.011719 322.121094 115.164062 325.152344 C 137.210938 329.519531 160.453125 331.726562 184.714844 331.726562 C 207.339844 331.726562 230.855469 329.828125 255.09375 326.003906 C 272.535156 323.273438 290.675781 319.304688 305.148438 308.859375 C 319.875 298.238281 330.394531 280.9375 334.023438 261.351562 C 337.230469 244.078125 335.257812 224.96875 328.355469 206.070312 C 327.03125 202.46875 325.542969 198.855469 324.089844 195.378906 " fill-opacity="1" fill-rule="nonzero"/><path fill="#000000" d="M 99.511719 147.136719 C 98.628906 147.15625 97.78125 147.195312 96.910156 147.195312 C 89.53125 147.195312 82.125 146.390625 74.941406 144.8125 C 74.921875 144.832031 74.921875 144.851562 74.902344 144.871094 C 74.777344 145.316406 74.5625 145.722656 74.214844 146.089844 C 71.664062 148.859375 69.023438 151.714844 67.875 155.046875 C 67.429688 156.375 67.273438 157.953125 67.535156 159.394531 C 71.875 160.488281 76.371094 159.160156 78.886719 158.117188 C 82.125 156.820312 85.085938 154.980469 88.21875 153.042969 C 89.601562 152.171875 91.03125 151.289062 92.453125 150.488281 C 94.375 149.375 96.773438 148.09375 99.511719 147.136719 Z M 107.535156 142.335938 C 106.984375 140.777344 106.191406 139.390625 105.175781 138.238281 C 103.832031 136.769531 102.082031 135.636719 100.234375 134.464844 C 99.144531 133.738281 98.011719 133.011719 96.929688 132.179688 C 93.214844 129.34375 90.390625 125.527344 88.730469 121.171875 C 88.199219 119.765625 87.792969 118.316406 87.40625 116.929688 C 86.816406 114.839844 86.253906 112.855469 85.296875 111.132812 C 84.320312 109.339844 82.53125 107.714844 80.714844 107.335938 C 77.242188 109.535156 72.496094 110.125 67.339844 108.886719 C 65.183594 108.351562 63.164062 107.625 61.183594 106.910156 C 58.863281 106.046875 56.648438 105.246094 54.433594 104.859375 C 51.234375 104.304688 47.105469 104.925781 45.566406 107.585938 C 44.03125 110.25 45.402344 114.199219 46.804688 117.035156 C 51.621094 126.785156 59.90625 134.636719 69.816406 139.054688 C 81.953125 142.617188 94.964844 143.769531 107.535156 142.335938 Z M 108.347656 149.867188 C 103.125 149.65625 97.972656 152.210938 94.570312 154.175781 C 93.175781 154.980469 91.8125 155.8125 90.449219 156.664062 C 87.296875 158.609375 84.058594 160.632812 80.480469 162.085938 C 77.898438 163.132812 75.328125 163.75 72.882812 163.984375 C 73.625 164.089844 74.410156 164.175781 75.183594 164.214844 C 78.5 164.410156 81.84375 164.320312 85.171875 164.070312 L 99.65625 159.742188 C 101.722656 159.140625 104.066406 158.4375 105.574219 157.011719 C 106.964844 155.707031 107.875 153.574219 108.261719 150.699219 C 108.308594 150.417969 108.308594 150.136719 108.347656 149.867188 Z M 327.738281 260.179688 C 330.734375 244.03125 328.867188 226.101562 322.351562 208.265625 C 321.066406 204.789062 319.613281 201.246094 318.195312 197.828125 C 314.972656 190.074219 311.628906 182.050781 310.082031 173.519531 C 309.78125 171.960938 309.539062 170.363281 309.289062 168.738281 C 308.175781 161.40625 307.132812 154.476562 302.152344 150.863281 C 297.445312 147.425781 290.800781 148.523438 286.132812 150.671875 C 281.847656 152.65625 278.078125 155.667969 274.121094 158.84375 C 272.835938 159.886719 271.539062 160.914062 270.246094 161.890625 C 251.988281 175.84375 228.496094 183.460938 205.480469 182.949219 C 204.246094 183.539062 202.84375 184.179688 201.355469 184.933594 C 196.625 187.210938 192.875 189.476562 192.1875 188.710938 C 191.597656 188.0625 194.101562 184.847656 198.558594 182.347656 C 198.578125 182.175781 198.578125 182.011719 198.628906 181.796875 C 198.734375 181.285156 198.984375 180.730469 199.34375 180.152344 C 198.027344 180.597656 196.820312 180.964844 195.660156 181.214844 C 191 182.28125 188.011719 182.117188 187.953125 181.691406 C 187.886719 181.128906 190.679688 180.414062 194.914062 178.785156 C 197.023438 177.972656 199.496094 176.871094 202.117188 175.484375 C 204.738281 174.050781 207.503906 172.328125 210.257812 170.277344 C 211.855469 169.015625 213.34375 167.738281 214.726562 166.433594 C 219.628906 161.039062 223.632812 154.535156 226.269531 147.300781 C 230.410156 136.003906 231.53125 122.710938 229.527344 108.847656 C 227.847656 97.199219 224.269531 87.730469 218.882812 80.671875 C 213.574219 73.742188 205.695312 67.914062 194.769531 62.839844 C 172.355469 52.433594 148.839844 50.214844 128.515625 56.585938 C 105.960938 63.652344 88.625 81.796875 84.378906 102.816406 C 84.300781 103.171875 84.144531 103.511719 83.980469 103.8125 C 83.953125 103.878906 83.933594 103.9375 83.914062 104.003906 C 86.0625 105.136719 87.898438 106.988281 89.046875 109.078125 C 90.238281 111.238281 90.875 113.5625 91.496094 115.777344 C 91.882812 117.144531 92.238281 118.421875 92.714844 119.640625 C 94.078125 123.222656 96.484375 126.46875 99.53125 128.808594 C 100.46875 129.535156 101.464844 130.175781 102.554688 130.863281 C 104.527344 132.160156 106.597656 133.484375 108.328125 135.382812 C 111.820312 139.246094 113.328125 145.027344 112.476562 151.269531 C 111.964844 155.152344 110.628906 158.117188 108.492188 160.121094 C 106.257812 162.230469 103.273438 163.132812 100.875 163.835938 L 94.820312 165.628906 C 94.878906 165.707031 94.945312 165.773438 95.015625 165.84375 C 95.933594 167.160156 96.96875 168.554688 98.117188 169.851562 C 100.71875 171.359375 104.316406 173.324219 108.648438 174.730469 C 117.183594 177.652344 124.765625 176.996094 124.902344 178.039062 C 124.988281 178.503906 123.132812 179.300781 119.910156 179.636719 C 117.765625 179.871094 114.972656 179.8125 111.945312 179.261719 C 111.964844 179.511719 111.945312 179.765625 111.925781 180.027344 C 112.652344 180.363281 113.394531 180.730469 114.160156 181.109375 C 120 184.054688 124.621094 186.726562 124.261719 187.664062 C 123.894531 188.574219 118.546875 187.34375 112.5625 184.332031 C 111.675781 183.886719 110.8125 183.433594 110.011719 182.96875 C 109.730469 183.164062 109.410156 183.355469 109.054688 183.5 C 107.75 184.074219 106.453125 184.632812 105.175781 185.1875 C 98.398438 188.089844 92.007812 190.820312 86.082031 195.148438 C 79.058594 200.289062 73.046875 206.496094 68.28125 213.601562 C 58.542969 228.085938 54.113281 246.363281 56.136719 263.722656 C 57.90625 278.882812 64.335938 292.175781 74.246094 301.113281 C 85.933594 311.695312 102.128906 316.023438 116.421875 318.859375 C 158.257812 327.195312 204.5625 327.476562 254.117188 319.691406 C 270.777344 317.066406 288.027344 313.3125 301.425781 303.648438 C 314.828125 294.007812 324.410156 278.15625 327.738281 260.179688 Z M 328.355469 206.070312 C 335.257812 224.96875 337.230469 244.078125 334.023438 261.351562 C 330.394531 280.9375 319.875 298.238281 305.148438 308.859375 C 290.675781 319.304688 272.535156 323.273438 255.09375 326.003906 C 230.855469 329.828125 207.339844 331.714844 184.714844 331.714844 C 160.453125 331.714844 137.210938 329.519531 115.164062 325.152344 C 100.011719 322.121094 82.800781 317.496094 69.960938 305.867188 C 58.902344 295.867188 51.726562 281.167969 49.78125 264.449219 C 47.589844 245.609375 52.414062 225.75 62.972656 210.007812 C 68.171875 202.3125 74.671875 195.574219 82.339844 189.988281 C 88.410156 185.542969 94.945312 182.601562 101.320312 179.871094 C 99.78125 179.28125 98.222656 178.554688 96.890625 177.507812 C 94.058594 175.3125 91.902344 172.492188 90.09375 169.957031 C 86.515625 170.46875 82.871094 170.722656 79.246094 170.722656 C 77.773438 170.722656 76.285156 170.683594 74.816406 170.59375 C 71.644531 170.421875 68.316406 169.976562 65.523438 167.886719 C 61.414062 164.777344 59.886719 158.648438 61.820312 152.976562 C 62.933594 149.78125 64.828125 147.109375 66.847656 144.746094 C 55.75 139.691406 46.503906 130.832031 41.070312 119.894531 C 38.023438 113.707031 37.667969 108.507812 40.035156 104.394531 C 43.332031 98.671875 50.429688 97.644531 55.515625 98.546875 C 58.3125 99.039062 60.882812 99.976562 63.398438 100.886719 C 65.273438 101.574219 67.042969 102.234375 68.832031 102.660156 C 71.964844 103.425781 75.964844 103.40625 78.179688 101.207031 C 82.996094 78.089844 101.976562 58.210938 126.621094 50.464844 C 148.453125 43.640625 173.59375 45.964844 197.449219 57.039062 C 209.359375 62.539062 218.011719 69.007812 223.949219 76.769531 C 230.023438 84.71875 234.023438 95.195312 235.863281 107.925781 C 238.007812 122.835938 236.75 137.214844 232.273438 149.5 C 228.320312 160.363281 221.84375 169.617188 213.644531 176.394531 C 232.554688 175.183594 251.371094 168.273438 266.359375 156.820312 C 267.644531 155.859375 268.882812 154.851562 270.109375 153.855469 C 274.21875 150.5625 278.445312 147.175781 283.453125 144.871094 C 289.757812 141.949219 298.960938 140.632812 305.921875 145.683594 C 313.039062 150.84375 314.402344 159.847656 315.613281 167.777344 C 315.855469 169.335938 316.085938 170.875 316.355469 172.347656 C 317.808594 180.238281 320.851562 187.597656 324.089844 195.378906 C 325.542969 198.855469 327.03125 202.46875 328.355469 206.070312 " fill-opacity="1" fill-rule="nonzero"/></g><path fill="#fcce0b" d="M 131.332031 108.167969 C 132.125 105.410156 134.464844 96.097656 131.078125 91.011719 C 127.945312 86.367188 120.851562 87.429688 116.933594 89.988281 C 112.929688 92.589844 110.902344 96.753906 109.925781 99.785156 C 108.707031 103.472656 108.347656 107.25 108.007812 110.917969 C 107.75 113.792969 107.640625 116.804688 109.535156 119.234375 C 111.113281 121.238281 113.550781 122.050781 115.949219 122.050781 C 117.292969 122.050781 118.617188 121.789062 119.804688 121.382812 C 125.152344 119.515625 129.457031 114.558594 131.332031 108.167969 Z M 288.898438 249.539062 C 289.136719 246.207031 289.15625 242.90625 288.984375 239.644531 C 288.925781 237.980469 288.769531 236.421875 288.605469 234.734375 C 288.394531 233.03125 288.066406 231.28125 287.476562 229.507812 C 286.855469 227.734375 285.917969 225.859375 284.34375 224.28125 C 282.765625 222.683594 280.570312 221.617188 278.359375 221.386719 C 276.144531 221.105469 274.160156 221.578125 272.480469 222.128906 C 270.796875 222.730469 269.328125 223.449219 267.964844 224.203125 C 266.6875 224.898438 265.429688 225.585938 264.171875 226.285156 C 262.972656 226.933594 261.746094 227.523438 260.507812 228.035156 C 258.035156 229.148438 255.5 230.019531 252.964844 230.746094 C 247.917969 232.179688 242.785156 232.878906 237.84375 232.964844 C 232.855469 233.070312 228.109375 232.46875 223.574219 231.425781 C 219.027344 230.378906 214.707031 228.90625 210.558594 227.484375 C 202.242188 224.542969 194.382812 221.871094 187.121094 220.996094 C 179.859375 220 173.332031 220.910156 168.507812 222.789062 C 163.664062 224.6875 160.453125 227.308594 158.703125 229.363281 C 156.933594 231.40625 156.402344 232.75 156.578125 232.878906 C 156.808594 233.050781 157.726562 232.007812 159.699219 230.410156 C 161.664062 228.800781 164.832031 226.796875 169.398438 225.460938 C 173.953125 224.117188 179.8125 223.707031 186.503906 224.96875 C 193.210938 226.140625 200.523438 228.996094 208.78125 232.257812 C 212.9375 233.863281 217.394531 235.550781 222.25 236.828125 C 227.101562 238.105469 232.390625 238.917969 237.84375 238.9375 C 243.316406 238.976562 248.984375 238.335938 254.628906 236.847656 C 257.445312 236.121094 260.265625 235.179688 263.042969 234.011719 C 264.445312 233.457031 265.808594 232.820312 267.171875 232.113281 C 268.5625 231.425781 269.878906 230.679688 271.078125 230.039062 C 273.472656 228.761719 275.949219 227.824219 277.527344 228.085938 C 278.320312 228.191406 278.976562 228.53125 279.527344 229.082031 C 280.089844 229.664062 280.589844 230.574219 280.957031 231.707031 C 281.335938 232.839844 281.578125 234.15625 281.722656 235.519531 C 281.867188 236.933594 281.972656 238.464844 282.042969 239.964844 C 282.167969 242.945312 282.109375 245.976562 281.867188 249.027344 C 280.957031 261.167969 276.957031 273.558594 269.277344 283.832031 C 265.488281 288.972656 260.933594 293.453125 255.886719 297.035156 C 250.859375 300.621094 245.269531 303.222656 239.460938 305.015625 C 227.828125 308.644531 215.691406 309.265625 204.15625 309.214844 C 192.640625 309.179688 181.753906 308.113281 172.074219 305.335938 C 162.4375 302.605469 154.0625 298.101562 147.640625 292.5625 C 141.191406 287.074219 136.84375 280.53125 134.550781 274.238281 C 132.203125 267.925781 131.777344 261.96875 132.125 257.214844 C 132.5 252.464844 133.652344 248.832031 134.550781 246.441406 C 135.460938 244.058594 136.097656 242.820312 135.847656 242.664062 C 135.703125 242.539062 134.636719 243.527344 133.246094 245.832031 C 131.882812 248.105469 130.199219 251.796875 129.328125 256.898438 C 128.546875 261.949219 128.546875 268.457031 130.730469 275.535156 C 132.90625 282.601562 137.421875 290.085938 144.257812 296.359375 C 151.054688 302.691406 160.046875 307.851562 170.375 311.054688 C 180.710938 314.300781 192.1875 315.617188 204.082031 315.847656 C 215.894531 316.0625 228.699219 315.636719 241.546875 311.753906 C 247.9375 309.835938 254.28125 306.933594 259.996094 302.886719 C 265.71875 298.875 270.816406 293.863281 275.078125 288.121094 C 283.617188 276.609375 288.007812 262.804688 288.898438 249.539062 Z M 322.351562 208.265625 C 328.867188 226.101562 330.734375 244.03125 327.738281 260.179688 C 324.410156 278.15625 314.828125 294.007812 301.425781 303.648438 C 288.027344 313.3125 270.777344 317.066406 254.117188 319.691406 C 204.5625 327.476562 158.257812 327.195312 116.421875 318.859375 C 102.128906 316.023438 85.933594 311.695312 74.246094 301.113281 C 64.335938 292.175781 57.90625 278.882812 56.136719 263.722656 C 54.113281 246.363281 58.542969 228.085938 68.28125 213.601562 C 73.046875 206.496094 79.058594 200.289062 86.082031 195.148438 C 92.007812 190.820312 98.398438 188.089844 105.175781 185.1875 C 106.453125 184.632812 107.75 184.074219 109.054688 183.5 C 109.410156 183.355469 109.730469 183.164062 110.011719 182.96875 C 110.8125 183.433594 111.675781 183.886719 112.5625 184.332031 C 118.546875 187.34375 123.894531 188.574219 124.261719 187.664062 C 124.621094 186.726562 120 184.054688 114.160156 181.109375 C 113.394531 180.730469 112.652344 180.363281 111.925781 180.027344 C 111.945312 179.765625 111.964844 179.511719 111.945312 179.261719 C 114.972656 179.8125 117.765625 179.871094 119.910156 179.636719 C 123.132812 179.300781 124.988281 178.503906 124.902344 178.039062 C 124.765625 176.996094 117.183594 177.652344 108.648438 174.730469 C 104.316406 173.324219 100.71875 171.359375 98.117188 169.851562 C 96.96875 168.554688 95.933594 167.160156 95.015625 165.84375 C 94.945312 165.773438 94.878906 165.707031 94.820312 165.628906 L 100.875 163.835938 C 103.273438 163.132812 106.257812 162.230469 108.492188 160.121094 C 110.628906 158.117188 111.964844 155.152344 112.476562 151.269531 C 113.328125 145.027344 111.820312 139.246094 108.328125 135.382812 C 106.597656 133.484375 104.527344 132.160156 102.554688 130.863281 C 101.464844 130.175781 100.46875 129.535156 99.53125 128.808594 C 96.484375 126.46875 94.078125 123.222656 92.714844 119.640625 C 92.238281 118.421875 91.882812 117.144531 91.496094 115.777344 C 90.875 113.5625 90.238281 111.238281 89.046875 109.078125 C 87.898438 106.988281 86.0625 105.136719 83.914062 104.003906 C 83.933594 103.9375 83.953125 103.878906 83.980469 103.8125 C 84.144531 103.511719 84.300781 103.171875 84.378906 102.816406 C 88.625 81.796875 105.960938 63.652344 128.515625 56.585938 C 148.839844 50.214844 172.355469 52.433594 194.769531 62.839844 C 205.695312 67.914062 213.574219 73.742188 218.882812 80.671875 C 224.269531 87.730469 227.847656 97.199219 229.527344 108.847656 C 231.53125 122.710938 230.410156 136.003906 226.269531 147.300781 C 223.632812 154.535156 219.628906 161.039062 214.726562 166.433594 C 213.34375 167.738281 211.855469 169.015625 210.257812 170.277344 C 207.503906 172.328125 204.738281 174.050781 202.117188 175.484375 C 199.496094 176.871094 197.023438 177.972656 194.914062 178.785156 C 190.679688 180.414062 187.886719 181.128906 187.953125 181.691406 C 188.011719 182.117188 191 182.28125 195.660156 181.214844 C 196.820312 180.964844 198.027344 180.597656 199.34375 180.152344 C 198.984375 180.730469 198.734375 181.285156 198.628906 181.796875 C 198.578125 182.011719 198.578125 182.175781 198.558594 182.347656 C 194.101562 184.847656 191.597656 188.0625 192.1875 188.710938 C 192.875 189.476562 196.625 187.210938 201.355469 184.933594 C 202.84375 184.179688 204.246094 183.539062 205.480469 182.949219 C 228.496094 183.460938 251.988281 175.84375 270.246094 161.890625 C 271.539062 160.914062 272.835938 159.886719 274.121094 158.84375 C 278.078125 155.667969 281.847656 152.65625 286.132812 150.671875 C 290.800781 148.523438 297.445312 147.425781 302.152344 150.863281 C 307.132812 154.476562 308.175781 161.40625 309.289062 168.738281 C 309.539062 170.363281 309.78125 171.960938 310.082031 173.519531 C 311.628906 182.050781 314.972656 190.074219 318.195312 197.828125 C 319.613281 201.246094 321.066406 204.789062 322.351562 208.265625 " fill-opacity="1" fill-rule="nonzero"/><path fill="#000000" d="M 288.984375 239.644531 C 289.15625 242.90625 289.136719 246.207031 288.898438 249.539062 C 288.007812 262.804688 283.617188 276.609375 275.078125 288.121094 C 270.816406 293.863281 265.71875 298.875 259.996094 302.886719 C 254.28125 306.933594 247.9375 309.835938 241.546875 311.753906 C 228.699219 315.636719 215.894531 316.0625 204.082031 315.847656 C 192.1875 315.617188 180.710938 314.300781 170.375 311.054688 C 160.046875 307.851562 151.054688 302.691406 144.257812 296.359375 C 137.421875 290.085938 132.90625 282.601562 130.730469 275.535156 C 128.546875 268.457031 128.546875 261.949219 129.328125 256.898438 C 130.199219 251.796875 131.882812 248.105469 133.246094 245.832031 C 134.636719 243.527344 135.703125 242.539062 135.847656 242.664062 C 136.097656 242.820312 135.460938 244.058594 134.550781 246.441406 C 133.652344 248.832031 132.5 252.464844 132.125 257.214844 C 131.777344 261.96875 132.203125 267.925781 134.550781 274.238281 C 136.84375 280.53125 141.191406 287.074219 147.640625 292.5625 C 154.0625 298.101562 162.4375 302.605469 172.074219 305.335938 C 181.753906 308.113281 192.640625 309.179688 204.15625 309.214844 C 215.691406 309.265625 227.828125 308.644531 239.460938 305.015625 C 245.269531 303.222656 250.859375 300.621094 255.886719 297.035156 C 260.933594 293.453125 265.488281 288.972656 269.277344 283.832031 C 276.957031 273.558594 280.957031 261.167969 281.867188 249.027344 C 282.109375 245.976562 282.167969 242.945312 282.042969 239.964844 C 281.972656 238.464844 281.867188 236.933594 281.722656 235.519531 C 281.578125 234.15625 281.335938 232.839844 280.957031 231.707031 C 280.589844 230.574219 280.089844 229.664062 279.527344 229.082031 C 278.976562 228.53125 278.320312 228.191406 277.527344 228.085938 C 275.949219 227.824219 273.472656 228.761719 271.078125 230.039062 C 269.878906 230.679688 268.5625 231.425781 267.171875 232.113281 C 265.808594 232.820312 264.445312 233.457031 263.042969 234.011719 C 260.265625 235.179688 257.445312 236.121094 254.628906 236.847656 C 248.984375 238.335938 243.316406 238.976562 237.84375 238.9375 C 232.390625 238.917969 227.101562 238.105469 222.25 236.828125 C 217.394531 235.550781 212.9375 233.863281 208.78125 232.257812 C 200.523438 228.996094 193.210938 226.140625 186.503906 224.96875 C 179.8125 223.707031 173.953125 224.117188 169.398438 225.460938 C 164.832031 226.796875 161.664062 228.800781 159.699219 230.410156 C 157.726562 232.007812 156.808594 233.050781 156.578125 232.878906 C 156.402344 232.75 156.933594 231.40625 158.703125 229.363281 C 160.453125 227.308594 163.664062 224.6875 168.507812 222.789062 C 173.332031 220.910156 179.859375 220 187.121094 220.996094 C 194.382812 221.871094 202.242188 224.542969 210.558594 227.484375 C 214.707031 228.90625 219.027344 230.378906 223.574219 231.425781 C 228.109375 232.46875 232.855469 233.070312 237.84375 232.964844 C 242.785156 232.878906 247.917969 232.179688 252.964844 230.746094 C 255.5 230.019531 258.035156 229.148438 260.507812 228.035156 C 261.746094 227.523438 262.972656 226.933594 264.171875 226.285156 C 265.429688 225.585938 266.6875 224.898438 267.964844 224.203125 C 269.328125 223.449219 270.796875 222.730469 272.480469 222.128906 C 274.160156 221.578125 276.144531 221.105469 278.359375 221.386719 C 280.570312 221.617188 282.765625 222.683594 284.34375 224.28125 C 285.917969 225.859375 286.855469 227.734375 287.476562 229.507812 C 288.066406 231.28125 288.394531 233.03125 288.605469 234.734375 C 288.769531 236.421875 288.925781 237.980469 288.984375 239.644531 " fill-opacity="1" fill-rule="nonzero"/><path fill="#000000" d="M 126.882812 95.476562 C 127.347656 94.277344 126.921875 93.703125 126.765625 93.511719 C 126.449219 93.105469 125.625 92.832031 124.582031 92.785156 C 124.535156 92.785156 124.464844 92.785156 124.40625 92.785156 C 122.550781 92.785156 120.683594 93.53125 120.085938 94.257812 C 119.398438 95.050781 119.378906 96.453125 120.019531 97.394531 C 120.703125 98.351562 122.066406 98.882812 123.34375 98.671875 C 124.496094 98.476562 126.246094 97.113281 126.882812 95.476562 Z M 127.242188 106.96875 C 127.839844 104.878906 128.285156 102.601562 128.480469 100.441406 C 127.183594 101.703125 125.578125 102.621094 124.050781 102.890625 C 123.625 102.960938 123.191406 102.980469 122.785156 102.980469 C 120.316406 102.980469 117.910156 101.808594 116.527344 99.824219 C 116.054688 99.144531 115.734375 98.390625 115.523438 97.625 C 114.824219 98.824219 114.3125 100.054688 113.964844 101.128906 C 112.902344 104.34375 112.5625 107.886719 112.265625 111.324219 C 112.050781 113.417969 111.964844 115.421875 112.902344 116.589844 C 114.03125 118.042969 116.546875 118.015625 118.402344 117.355469 C 122.386719 115.953125 125.769531 111.964844 127.242188 106.96875 Z M 131.078125 91.011719 C 134.464844 96.097656 132.125 105.410156 131.332031 108.167969 C 129.457031 114.558594 125.152344 119.515625 119.804688 121.382812 C 118.617188 121.789062 117.292969 122.050781 115.949219 122.050781 C 113.550781 122.050781 111.113281 121.238281 109.535156 119.234375 C 107.640625 116.804688 107.75 113.792969 108.007812 110.917969 C 108.347656 107.25 108.707031 103.472656 109.925781 99.785156 C 110.902344 96.753906 112.929688 92.589844 116.933594 89.988281 C 120.851562 87.429688 127.945312 86.367188 131.078125 91.011719 " fill-opacity="1" fill-rule="nonzero"/><path fill="#333333" d="M 128.480469 100.441406 C 128.285156 102.601562 127.839844 104.878906 127.242188 106.96875 C 125.769531 111.964844 122.386719 115.953125 118.402344 117.355469 C 116.546875 118.015625 114.03125 118.042969 112.902344 116.589844 C 111.964844 115.421875 112.050781 113.417969 112.265625 111.324219 C 112.5625 107.886719 112.902344 104.34375 113.964844 101.128906 C 114.3125 100.054688 114.824219 98.824219 115.523438 97.625 C 115.734375 98.390625 116.054688 99.144531 116.527344 99.824219 C 117.910156 101.808594 120.316406 102.980469 122.785156 102.980469 C 123.191406 102.980469 123.625 102.960938 124.050781 102.890625 C 125.578125 102.621094 127.183594 101.703125 128.480469 100.441406 " fill-opacity="1" fill-rule="nonzero"/><path fill="#ffffff" d="M 126.765625 93.511719 C 126.921875 93.703125 127.347656 94.277344 126.882812 95.476562 C 126.246094 97.113281 124.496094 98.476562 123.34375 98.671875 C 122.066406 98.882812 120.703125 98.351562 120.019531 97.394531 C 119.378906 96.453125 119.398438 95.050781 120.085938 94.257812 C 120.683594 93.53125 122.550781 92.785156 124.40625 92.785156 C 124.464844 92.785156 124.535156 92.785156 124.582031 92.785156 C 125.625 92.832031 126.449219 93.105469 126.765625 93.511719 " fill-opacity="1" fill-rule="nonzero"/><path fill="#ff6622" d="M 94.570312 154.175781 C 97.972656 152.210938 103.125 149.65625 108.347656 149.867188 C 108.308594 150.136719 108.308594 150.417969 108.261719 150.699219 C 107.875 153.574219 106.964844 155.707031 105.574219 157.011719 C 104.066406 158.4375 101.722656 159.140625 99.65625 159.742188 L 85.171875 164.070312 C 81.84375 164.320312 78.5 164.410156 75.183594 164.214844 C 74.410156 164.175781 73.625 164.089844 72.882812 163.984375 C 75.328125 163.75 77.898438 163.132812 80.480469 162.085938 C 84.058594 160.632812 87.296875 158.609375 90.449219 156.664062 C 91.8125 155.8125 93.175781 154.980469 94.570312 154.175781 " fill-opacity="1" fill-rule="nonzero"/><path fill="#ff6622" d="M 105.175781 138.238281 C 106.191406 139.390625 106.984375 140.777344 107.535156 142.335938 C 94.964844 143.769531 81.953125 142.617188 69.816406 139.054688 C 59.90625 134.636719 51.621094 126.785156 46.804688 117.035156 C 45.402344 114.199219 44.03125 110.25 45.566406 107.585938 C 47.105469 104.925781 51.234375 104.304688 54.433594 104.859375 C 56.648438 105.246094 58.863281 106.046875 61.183594 106.910156 C 63.164062 107.625 65.183594 108.351562 67.339844 108.886719 C 72.496094 110.125 77.242188 109.535156 80.714844 107.335938 C 82.53125 107.714844 84.320312 109.339844 85.296875 111.132812 C 86.253906 112.855469 86.816406 114.839844 87.40625 116.929688 C 87.792969 118.316406 88.199219 119.765625 88.730469 121.171875 C 90.390625 125.527344 93.214844 129.34375 96.929688 132.179688 C 98.011719 133.011719 99.144531 133.738281 100.234375 134.464844 C 102.082031 135.636719 103.832031 136.769531 105.175781 138.238281 " fill-opacity="1" fill-rule="nonzero"/><path fill="#df5028" d="M 96.910156 147.195312 C 97.78125 147.195312 98.628906 147.15625 99.511719 147.136719 C 96.773438 148.09375 94.375 149.375 92.453125 150.488281 C 91.03125 151.289062 89.601562 152.171875 88.21875 153.042969 C 85.085938 154.980469 82.125 156.820312 78.886719 158.117188 C 76.371094 159.160156 71.875 160.488281 67.535156 159.394531 C 67.273438 157.953125 67.429688 156.375 67.875 155.046875 C 69.023438 151.714844 71.664062 148.859375 74.214844 146.089844 C 74.5625 145.722656 74.777344 145.316406 74.902344 144.871094 C 74.921875 144.851562 74.921875 144.832031 74.941406 144.8125 C 82.125 146.390625 89.53125 147.195312 96.910156 147.195312 " fill-opacity="1" fill-rule="nonzero"/><g fill="#ffffff" fill-opacity="1"><g transform="translate(69.791015, 265.749957)"><g><path d="M 5.84375 -61.203125 L 26.5625 -61.203125 C 31.675781 -61.203125 36.019531 -60.332031 39.59375 -58.59375 C 43.164062 -56.863281 46.085938 -54.546875 48.359375 -51.640625 C 50.628906 -48.734375 52.28125 -45.46875 53.3125 -41.84375 C 54.351562 -38.21875 54.875 -34.507812 54.875 -30.71875 C 54.875 -27.039062 54.367188 -23.382812 53.359375 -19.75 C 52.347656 -16.125 50.734375 -12.816406 48.515625 -9.828125 C 46.304688 -6.847656 43.398438 -4.460938 39.796875 -2.671875 C 36.203125 -0.890625 31.789062 0 26.5625 0 L 5.84375 0 Z M 20.484375 -46.15625 L 20.484375 -14.953125 L 27.4375 -14.953125 C 31.914062 -14.953125 35.164062 -16.378906 37.1875 -19.234375 C 39.21875 -22.085938 40.234375 -25.863281 40.234375 -30.5625 C 40.234375 -35.25 39.21875 -39.019531 37.1875 -41.875 C 35.164062 -44.726562 31.914062 -46.15625 27.4375 -46.15625 Z M 20.484375 -46.15625 "/></g></g></g><g fill="#ffffff" fill-opacity="1"><g transform="translate(128.425319, 265.749957)"><g><path d="M 5.84375 -35.28125 L 18.71875 -35.28125 L 18.71875 -15.203125 C 18.71875 -13.171875 19.15625 -11.78125 20.03125 -11.03125 C 20.914062 -10.289062 22.078125 -9.921875 23.515625 -9.921875 C 24.742188 -9.921875 26.078125 -10.132812 27.515625 -10.5625 C 28.960938 -10.988281 30.03125 -11.601562 30.71875 -12.40625 L 30.71875 -35.28125 L 43.59375 -35.28125 L 43.59375 0 L 31.125 0 L 31.125 -2.484375 C 29.519531 -1.523438 27.582031 -0.738281 25.3125 -0.125 C 23.050781 0.488281 20.664062 0.796875 18.15625 0.796875 C 14.15625 0.796875 11.101562 -0.210938 9 -2.234375 C 6.894531 -4.265625 5.84375 -7.835938 5.84375 -12.953125 Z M 5.84375 -35.28125 "/></g></g></g><g fill="#ffffff" fill-opacity="1"><g transform="translate(177.300571, 265.749957)"><g><path d="M 36.078125 -31.4375 L 30.15625 -23.765625 C 29.25 -24.503906 28.234375 -25.035156 27.109375 -25.359375 C 25.992188 -25.679688 24.90625 -25.84375 23.84375 -25.84375 C 21.4375 -25.84375 19.523438 -25.109375 18.109375 -23.640625 C 16.703125 -22.171875 16 -20.15625 16 -17.59375 C 16 -15.300781 16.597656 -13.378906 17.796875 -11.828125 C 18.992188 -10.285156 20.898438 -9.515625 23.515625 -9.515625 C 25.171875 -9.515625 26.53125 -9.820312 27.59375 -10.4375 C 28.664062 -11.050781 29.601562 -11.8125 30.40625 -12.71875 L 36.796875 -7.359375 C 35.410156 -5.066406 33.503906 -3.132812 31.078125 -1.5625 C 28.648438 0.0078125 25.546875 0.796875 21.765625 0.796875 C 17.816406 0.796875 14.492188 -0.0820312 11.796875 -1.84375 C 9.109375 -3.601562 7.097656 -5.910156 5.765625 -8.765625 C 4.429688 -11.617188 3.765625 -14.617188 3.765625 -17.765625 C 3.765625 -21.492188 4.613281 -24.726562 6.3125 -27.46875 C 8.019531 -30.21875 10.285156 -32.335938 13.109375 -33.828125 C 15.941406 -35.328125 19.066406 -36.078125 22.484375 -36.078125 C 24.828125 -36.078125 27.1875 -35.691406 29.5625 -34.921875 C 31.9375 -34.148438 34.109375 -32.988281 36.078125 -31.4375 Z M 36.078125 -31.4375 "/></g></g></g><g fill="#ffffff" fill-opacity="1"><g transform="translate(216.576761, 265.749957)"><g><path d="M 5.84375 -61.203125 L 18.796875 -61.203125 L 18.796875 -24.234375 L 29.203125 -35.28125 L 43.359375 -35.28125 L 32.796875 -24.3125 L 45.203125 0 L 31.28125 0 L 24.078125 -15.28125 L 18.796875 -9.765625 L 18.796875 0 L 5.84375 0 Z M 5.84375 -61.203125 "/></g></g></g><g fill="#ffffff" fill-opacity="1"><g transform="translate(263.452204, 265.749957)"><g><path d="M 0.796875 -35.28125 L 13.6875 -35.28125 L 20.796875 -20.078125 L 28.71875 -35.28125 L 40.875 -35.28125 L 14.078125 16.15625 L 1.84375 16.15625 L 14.640625 -8.3125 Z M 0.796875 -35.28125 "/></g></g></g></svg>